<?xml version="1.0" encoding="UTF-8" standalone="no"?>
<!-- Created with Inkscape (http://www.inkscape.org/) -->

<svg
   width="119.19338mm"
   height="20.768778mm"
   viewBox="0 0 119.19338 20.768778"
   version="1.1"
   id="svg1"
   xml:space="preserve"
   xmlns:xlink="http://www.w3.org/1999/xlink"
   xmlns="http://www.w3.org/2000/svg"
   xmlns:svg="http://www.w3.org/2000/svg"><defs
     id="defs1"><rect
       x="154.0578"
       y="-113.3499"
       width="639.64301"
       height="172.12392"
       id="rect60" /><linearGradient
       id="swatch17"><stop
         style="stop-color:#000000;stop-opacity:1;"
         offset="0"
         id="stop19" /></linearGradient><linearGradient
       id="linearGradient7"><stop
         style="stop-color:#000000;stop-opacity:1;"
         offset="0"
         id="stop11" /><stop
         style="stop-color:#000000;stop-opacity:0;"
         offset="1"
         id="stop12" /></linearGradient><linearGradient
       id="linearGradient104"><stop
         style="stop-color:#0055ff;stop-opacity:1;"
         offset="0"
         id="stop103" /><stop
         style="stop-color:#4000ff;stop-opacity:1;"
         offset="1"
         id="stop104" /></linearGradient><linearGradient
       id="linearGradient94"><stop
         style="stop-color:#00f08c;stop-opacity:1;"
         offset="0"
         id="stop93" /><stop
         style="stop-color:#8cf000;stop-opacity:1;"
         offset="1"
         id="stop94" /></linearGradient><linearGradient
       id="linearGradient90"><stop
         style="stop-color:#e50000;stop-opacity:1;"
         offset="0"
         id="stop89" /><stop
         style="stop-color:#ff6a00;stop-opacity:1;"
         offset="1"
         id="stop90" /></linearGradient><linearGradient
       id="swatch79"><stop
         style="stop-color:#ff0000;stop-opacity:1;"
         offset="0"
         id="stop79" /></linearGradient><linearGradient
       id="swatch78"><stop
         style="stop-color:#4de500;stop-opacity:1;"
         offset="0"
         id="stop78" /></linearGradient><linearGradient
       id="swatch77"><stop
         style="stop-color:#4968ff;stop-opacity:1;"
         offset="0"
         id="stop77" /></linearGradient><linearGradient
       id="linearGradient64"><stop
         style="stop-color:#e50000;stop-opacity:1;"
         offset="0"
         id="stop64" /><stop
         style="stop-color:#ff8100;stop-opacity:1;"
         offset="1"
         id="stop65" /></linearGradient><linearGradient
       id="linearGradient62"><stop
         style="stop-color:#0f83d0;stop-opacity:1;"
         offset="0"
         id="stop62" /><stop
         style="stop-color:#5f1de2;stop-opacity:1;"
         offset="1"
         id="stop63" /></linearGradient><linearGradient
       id="linearGradient60"><stop
         style="stop-color:#00f0c8;stop-opacity:1;"
         offset="0"
         id="stop61" /><stop
         style="stop-color:#8cf000;stop-opacity:1;"
         offset="1"
         id="stop60" /></linearGradient><linearGradient
       id="linearGradient18"><stop
         style="stop-color:#54758c;stop-opacity:1;"
         offset="0.5"
         id="stop17" /><stop
         style="stop-color:#707070;stop-opacity:0;"
         offset="1"
         id="stop18" /></linearGradient><linearGradient
       id="linearGradient10"><stop
         style="stop-color:#707070;stop-opacity:1;"
         offset="0.5"
         id="stop9" /><stop
         style="stop-color:#707070;stop-opacity:0;"
         offset="1"
         id="stop10" /></linearGradient><linearGradient
       xlink:href="#linearGradient64"
       id="linearGradient106-8"
       gradientUnits="userSpaceOnUse"
       gradientTransform="matrix(0.59992548,0,0,0.59992548,157.63083,18.227573)"
       x1="17.064833"
       y1="279.30322"
       x2="35.66399"
       y2="279.30322" /><linearGradient
       xlink:href="#linearGradient62"
       id="linearGradient107-0"
       gradientUnits="userSpaceOnUse"
       x1="4.6905131"
       y1="273.60965"
       x2="31.942881"
       y2="273.60965"
       gradientTransform="matrix(0.59992548,0,0,0.59992548,157.33044,18.227573)" /><linearGradient
       xlink:href="#linearGradient60"
       id="linearGradient108-6"
       gradientUnits="userSpaceOnUse"
       gradientTransform="matrix(0.59992548,0,0,0.59992548,157.63044,18.527817)"
       x1="18.600185"
       y1="298.59921"
       x2="18.600185"
       y2="292.32608" /><linearGradient
       xlink:href="#swatch79"
       id="linearGradient106-8-2"
       gradientUnits="userSpaceOnUse"
       gradientTransform="matrix(0.55198726,0,0,0.55198726,61.79122,-96.119225)"
       x1="17.064833"
       y1="279.30322"
       x2="35.66399"
       y2="279.30322" /><linearGradient
       xlink:href="#swatch78"
       id="linearGradient108-6-8"
       gradientUnits="userSpaceOnUse"
       gradientTransform="matrix(0.55198726,0,0,0.55198726,61.790861,-95.842973)"
       x1="18.600185"
       y1="298.59921"
       x2="18.600185"
       y2="292.32608" /><linearGradient
       xlink:href="#linearGradient64"
       id="linearGradient1"
       gradientUnits="userSpaceOnUse"
       gradientTransform="matrix(0.55198726,0,0,0.55198726,61.358717,-56.007803)"
       x1="17.064833"
       y1="279.30322"
       x2="35.66399"
       y2="279.30322" /><linearGradient
       xlink:href="#linearGradient62"
       id="linearGradient2"
       gradientUnits="userSpaceOnUse"
       gradientTransform="matrix(0.55198726,0,0,0.55198726,61.082331,-56.007803)"
       x1="4.6905131"
       y1="273.60965"
       x2="31.942881"
       y2="273.60965" /><linearGradient
       xlink:href="#linearGradient60"
       id="linearGradient3"
       gradientUnits="userSpaceOnUse"
       gradientTransform="matrix(0.55198726,0,0,0.55198726,61.358359,-55.731551)"
       x1="18.600185"
       y1="298.59921"
       x2="18.600185"
       y2="292.32608" /><linearGradient
       xlink:href="#swatch77"
       id="linearGradient4"
       gradientUnits="userSpaceOnUse"
       gradientTransform="matrix(0.55198726,0,0,0.55198726,61.514833,-96.119225)"
       x1="4.6905131"
       y1="273.60965"
       x2="31.942881"
       y2="273.60965" /><linearGradient
       xlink:href="#linearGradient64"
       id="linearGradient5"
       gradientUnits="userSpaceOnUse"
       gradientTransform="matrix(0.55198726,0,0,0.55198726,61.358716,-29.796109)"
       x1="17.064833"
       y1="279.30322"
       x2="35.66399"
       y2="279.30322" /><linearGradient
       xlink:href="#linearGradient62"
       id="linearGradient6"
       gradientUnits="userSpaceOnUse"
       gradientTransform="matrix(0.55198726,0,0,0.55198726,61.08233,-29.796109)"
       x1="4.6905131"
       y1="273.60965"
       x2="31.942881"
       y2="273.60965" /><linearGradient
       xlink:href="#linearGradient60"
       id="linearGradient8"
       gradientUnits="userSpaceOnUse"
       gradientTransform="matrix(0.55198726,0,0,0.55198726,61.358358,-29.519857)"
       x1="18.600185"
       y1="298.59921"
       x2="18.600185"
       y2="292.32608" /></defs><g
     id="layer1"
     transform="translate(-46.897048,24.995798)"><g
       id="g52-6"
       transform="translate(-16.524385,-142.78866)"><g
         id="g49-5"
         transform="matrix(1.0000038,0,0,1.0137261,-6.175061e-4,-2.2564587)"><g
           id="g50-0"
           transform="matrix(1.0040737,0,0,1,-0.42549354,0)"><rect
             style="fill:#000000;fill-opacity:1;stroke:none;stroke-width:0.31509"
             id="rect48-9"
             width="104.5736"
             height="59.187588"
             x="104.44922"
             y="164.39233"
             rx="0"
             ry="0" /></g></g><text
         xml:space="preserve"
         style="font-style:normal;font-variant:normal;font-weight:normal;font-stretch:normal;font-size:7.82876px;font-family:'Station Stencil';-inkscape-font-specification:'Station Stencil';text-align:start;writing-mode:lr-tb;direction:ltr;text-anchor:start;fill:#ffffff;fill-opacity:1;stroke:none;stroke-width:0.304463"
         x="168.15411"
         y="169.24318"
         id="text1-0"
         transform="scale(0.88047531,1.1357502)"><tspan
           id="tspan1-0"
           style="font-style:normal;font-variant:normal;font-weight:normal;font-stretch:normal;font-size:7.82876px;font-family:'Station Stencil';-inkscape-font-specification:'Station Stencil';fill:#ffffff;fill-opacity:1;stroke:none;stroke-width:0.304463"
           x="168.15411"
           y="169.24318">JAKE'S</tspan></text><text
         xml:space="preserve"
         style="font-style:normal;font-variant:normal;font-weight:normal;font-stretch:normal;font-size:7.82876px;font-family:Station;-inkscape-font-specification:Station;text-align:start;writing-mode:lr-tb;direction:ltr;text-anchor:start;fill:#ffffff;fill-opacity:1;stroke:none;stroke-width:0.304463"
         x="98.990143"
         y="57.122871"
         id="text1-0-3"
         transform="scale(0.88047531,1.1357502)"><tspan
           id="tspan1-0-7"
           style="font-style:normal;font-variant:normal;font-weight:normal;font-stretch:normal;font-size:7.82876px;font-family:Station;-inkscape-font-specification:Station;fill:#ffffff;fill-opacity:1;stroke:none;stroke-width:0.304463"
           x="98.990143"
           y="57.122871">JAKESMurals.com </tspan></text><text
         xml:space="preserve"
         style="font-style:normal;font-variant:normal;font-weight:normal;font-stretch:normal;font-size:5.32963px;font-family:Station;-inkscape-font-specification:Station;text-align:start;writing-mode:lr-tb;direction:ltr;text-anchor:start;fill:#ffffff;fill-opacity:1;stroke:none;stroke-width:0.142758"
         x="164.59792"
         y="179.48866"
         id="text4-6"
         transform="scale(0.8904074,1.1230814)"><tspan
           id="tspan4-1"
           style="font-style:normal;font-variant:normal;font-weight:normal;font-stretch:normal;font-family:Station;-inkscape-font-specification:Station;fill:#ffffff;fill-opacity:1;stroke:none;stroke-width:0.142758"
           x="164.59792"
           y="179.48866">M u r <tspan
   style="font-style:normal;font-variant:normal;font-weight:normal;font-stretch:normal;font-family:'Station Stencil';-inkscape-font-specification:'Station Stencil';fill:#ffffff;fill-opacity:1;stroke-width:0.142758"
   id="tspan30-38">a</tspan> l s</tspan></text><g
         id="g115-3"
         transform="matrix(1.3788039,0,0,1.3788039,-104.44751,-68.238441)"><path
           style="fill:url(#linearGradient106-8);stroke-width:0.599925"
           d="m 168.04981,189.91017 c -0.51005,0.003 -0.23452,-1.0704 0.11831,-1.28193 0.54932,-0.32933 0.90615,-0.24806 2.8018,-0.54447 0.99993,-0.15634 2.79178,-0.44385 3.98191,-0.6389 1.19013,-0.19506 2.24698,-0.35465 2.34858,-0.35465 0.3619,0 0.37546,-0.0767 0.37546,-2.12207 v -1.93131 h -0.23843 -0.23843 v -0.68483 -0.68482 l 0.50707,0.0323 c 1.19429,0.0761 1.32105,0.38106 1.32048,3.17737 -6e-4,3.3215 0.0156,3.29663 -2.3839,3.64488 -0.63384,0.092 -2.1181,0.32279 -3.29835,0.51287 -1.18025,0.19009 -2.44632,0.42866 -2.82147,0.44379 -0.86827,0.035 -0.66459,0.26323 -0.70315,0.42132 -0.0647,0.0964 -1.17992,0.007 -1.76988,0.0105 z"
           id="path20-1-8-4" /><path
           id="rect58-34-4"
           style="fill:url(#linearGradient107-0);stroke:none;stroke-width:0.264583"
           d="m 161.43992,178.91788 c -0.71775,0.004 -1.29552,1.40099 -1.29552,3.14089 v 0.62839 c 0,1.7399 0.57776,3.14089 1.29552,3.14089 h 13.75833 c 0.71777,0 1.29554,-1.40099 1.29554,-3.14089 v -0.62839 c 0,-1.7399 -0.57777,-3.14089 -1.29554,-3.14089 h -4.5346 c -0.15424,0 -7.05705,0.13312 -7.74259,0.77139 -0.89459,0.83289 -1.11062,2.52921 -1.11062,2.52921 0,0 -0.17261,-2.56184 1.17801,-3.03848 0.35423,-0.12501 1.44562,-0.28 0.8195,-0.27381 z" /><rect
           style="fill:url(#linearGradient108-6);stroke:none;stroke-width:0.264583"
           id="rect59-8-6"
           width="3.7634115"
           height="10.303111"
           x="166.90746"
           y="190.63182"
           rx="1.2956008"
           ry="3.1406205" /></g><path
         style="fill:url(#linearGradient106-8-2);stroke:#ffffff;stroke-width:0.5;stroke-dasharray:none;stroke-opacity:1"
         d="m 71.377651,61.844733 c -0.469294,0.003 -0.215781,-0.98486 0.108856,-1.17949 0.505425,-0.30301 0.833742,-0.22824 2.577916,-0.50096 0.920029,-0.14385 2.568698,-0.40839 3.663728,-0.58785 1.09503,-0.17947 2.067431,-0.32631 2.160912,-0.32631 0.332982,0 0.345458,-0.0706 0.345458,-1.9525 v -1.77699 h -0.219377 -0.219378 v -0.63011 -0.63009 l 0.466551,0.0297 c 1.098858,0.07 1.215489,0.35061 1.214965,2.92347 -5.52e-4,3.05609 0.01435,3.03321 -2.19341,3.35363 -0.583192,0.0846 -1.948849,0.297 -3.034789,0.47189 -1.08594,0.1749 -2.250842,0.39441 -2.596015,0.40833 -0.798889,0.0322 -0.611484,0.24219 -0.646963,0.38765 -0.05953,0.0887 -1.085636,0.006 -1.628454,0.01 z"
         id="path20-1-8-4-6" /><path
         id="rect58-34-4-1"
         style="fill:url(#linearGradient4);stroke:#ffffff;stroke-width:0.5;stroke-dasharray:none;stroke-opacity:1"
         d="m 65.295937,51.730813 c -0.660397,0.004 -1.191999,1.28904 -1.191999,2.88991 v 0.57817 c 0,1.60087 0.531593,2.88991 1.191999,2.88991 H 77.95488 c 0.660416,0 1.192018,-1.28904 1.192018,-2.88991 v -0.57817 c 0,-1.60087 -0.531602,-2.88991 -1.192018,-2.88991 h -4.172253 c -0.141916,0 -6.493143,0.12248 -7.123904,0.70975 -0.823106,0.76633 -1.021873,2.3271 -1.021873,2.3271 0,0 -0.158818,-2.35713 1.083878,-2.79568 0.325925,-0.11502 1.330105,-0.25763 0.754017,-0.25193 z" /><rect
         style="fill:url(#linearGradient108-6-8);stroke:#ffffff;stroke-width:0.5;stroke-dasharray:none;stroke-opacity:1"
         id="rect59-8-6-5"
         width="3.4626887"
         height="9.4798212"
         x="70.326584"
         y="62.508717"
         rx="1.1920732"
         ry="2.889663" /><path
         d="m 98.733802,92.439995 v -1.096027 h 5.965518 q 0.25052,0 0.43058,-0.180061 0.18006,-0.180062 0.18006,-0.430582 v -3.616887 h 1.10386 v 3.616887 q 0,0.344466 -0.13309,0.657616 -0.12526,0.305322 -0.37578,0.548013 -0.24269,0.242692 -0.54802,0.375781 -0.30532,0.12526 -0.65761,0.12526 z m 8.368948,0 4.75206,-5.323557 h 0.81419 l 4.75205,5.323557 h -1.4718 l -0.869,-0.970766 h -5.6367 l -0.86899,0.970766 z m 3.31156,-2.066793 h 3.69518 l -1.84759,-2.074621 z m 16.16639,2.066793 -2.90447,-2.01982 -2.91229,2.01982 h -2.32515 v -5.331386 h 1.09603 v 4.235359 h 0.88465 l 6.09078,-4.235359 h 1.91804 l -3.79695,2.638292 3.86741,2.693094 z m 4.03965,-4.227531 v 1.017739 h 7.51561 v 1.096027 h -7.51561 v 1.017738 h 8.30632 v 1.096027 h -9.41017 v -5.323557 h 9.41017 v 1.096026 z m 9.86425,4.227531 V 91.33614 h 7.74264 q 0.22703,0 0.41492,-0.117432 0.19572,-0.12526 0.19572,-0.383609 0,-0.266178 -0.19572,-0.391438 -0.18789,-0.12526 -0.41492,-0.12526 h -6.06729 q -0.33664,0 -0.64196,-0.109603 -0.30532,-0.109602 -0.53235,-0.31315 -0.53236,-0.461897 -0.53236,-1.182143 0,-0.352294 0.13309,-0.649787 0.14092,-0.297493 0.39927,-0.524527 0.22703,-0.203548 0.53235,-0.31315 0.30532,-0.109603 0.64196,-0.109603 h 7.04589 v 1.096026 h -7.04589 q -0.1096,0 -0.2192,0.03132 -0.10961,0.03131 -0.19572,0.09394 -0.0861,0.0548 -0.14092,0.156576 -0.0548,0.09395 -0.0548,0.219205 0,0.133089 0.0548,0.234863 0.0548,0.09394 0.14092,0.156575 0.0861,0.06263 0.19572,0.09394 0.1096,0.03132 0.2192,0.03132 h 6.06729 q 0.69676,0 1.18214,0.422753 0.25052,0.227034 0.38361,0.532356 0.14092,0.297493 0.14092,0.649787 0,0.352294 -0.14092,0.649787 -0.13309,0.297493 -0.38361,0.524527 -0.23486,0.203548 -0.54018,0.320979 -0.29749,0.109603 -0.64196,0.109603 z m 20.18253,-5.331386 v 5.331386 h -1.09603 v -3.922209 l -3.30373,2.614806 h -0.68111 l -3.30373,-2.614806 v 3.922209 h -1.09603 v -5.331386 h 1.09603 v 0.0078 l 3.64037,2.888812 3.6482,-2.888812 v -0.0078 z m 3.26459,5.331386 q -0.34446,0 -0.64979,-0.12526 -0.30532,-0.133089 -0.55584,-0.375781 -0.24269,-0.242691 -0.36795,-0.548013 -0.12526,-0.31315 -0.12526,-0.657616 v -3.616887 h 1.09603 v 3.616887 q 0,0.25052 0.17223,0.430582 0.18006,0.172233 0.43058,0.172233 h 6.06729 q 0.12526,0 0.23486,-0.04697 0.11743,-0.04697 0.19572,-0.12526 0.0861,-0.08612 0.13309,-0.195719 0.047,-0.109603 0.047,-0.234863 v -3.616887 h 1.09603 v 3.616887 q 0,0.344466 -0.12526,0.657616 -0.12526,0.305322 -0.36795,0.548013 -0.24269,0.242692 -0.55584,0.375781 -0.30533,0.12526 -0.65762,0.12526 z m 9.84075,-4.822516 q 0.24269,-0.242692 0.54802,-0.367952 0.31315,-0.133089 0.65761,-0.133089 h 7.22595 v 1.096026 h -7.22595 q -0.25052,0 -0.43058,0.180062 -0.18006,0.180061 -0.18006,0.430582 v 3.616887 h -1.09603 v -3.616887 q 0,-0.344466 0.12526,-0.649787 0.12526,-0.313151 0.37578,-0.555842 z m 16.50302,-0.501041 q 0.34447,0 0.64979,0.133089 0.31315,0.12526 0.55584,0.367952 0.24269,0.242691 0.36795,0.555842 0.13309,0.305321 0.13309,0.649787 v 1.910217 q 0,0.344466 -0.13309,0.657616 -0.12526,0.305322 -0.36795,0.548013 -0.24269,0.242692 -0.55584,0.375781 -0.30532,0.12526 -0.64979,0.12526 h -6.06729 q -0.35229,0 -0.65761,-0.12526 -0.30533,-0.133089 -0.54802,-0.375781 -0.24269,-0.242691 -0.37578,-0.548013 -0.12526,-0.305322 -0.12526,-0.641958 v -0.01566 q 0,-0.344465 0.12526,-0.641958 0.13309,-0.305322 0.37578,-0.548013 0.24269,-0.242692 0.54802,-0.367952 0.30532,-0.133089 0.65761,-0.133089 h 6.67011 v -0.219205 q 0,-0.250521 -0.18007,-0.430582 -0.17223,-0.180062 -0.42275,-0.180062 h -6.23169 v -1.096026 z m 0.60282,3.021901 h -6.67011 q -0.25052,0 -0.43058,0.180062 -0.18006,0.172233 -0.18006,0.422753 0,0.25052 0.18006,0.430582 0.18006,0.172232 0.43058,0.172232 h 6.06729 q 0.25052,0 0.42275,-0.180061 0.18007,-0.180062 0.18007,-0.430582 z m 3.76564,0.594986 q 0,0.25052 0.18006,0.430582 0.18006,0.180061 0.43058,0.180061 h 1.61273 v 1.096027 h -1.61273 q -0.35229,0 -0.65761,-0.12526 -0.30533,-0.133089 -0.54802,-0.375781 -0.25052,-0.242691 -0.37578,-0.548013 -0.12526,-0.31315 -0.12526,-0.657616 v -3.616887 h 1.09603 z m 3.31156,1.70667 V 91.33614 h 7.74264 q 0.22703,0 0.41492,-0.117432 0.19572,-0.12526 0.19572,-0.383609 0,-0.266178 -0.19572,-0.391438 -0.18789,-0.12526 -0.41492,-0.12526 h -6.06729 q -0.33664,0 -0.64196,-0.109603 -0.30532,-0.109602 -0.53235,-0.31315 -0.53236,-0.461897 -0.53236,-1.182143 0,-0.352294 0.13309,-0.649787 0.14092,-0.297493 0.39927,-0.524527 0.22703,-0.203548 0.53235,-0.31315 0.30532,-0.109603 0.64196,-0.109603 h 7.04588 v 1.096026 h -7.04588 q -0.1096,0 -0.21921,0.03132 -0.1096,0.03131 -0.19571,0.09394 -0.0861,0.0548 -0.14092,0.156576 -0.0548,0.09395 -0.0548,0.219205 0,0.133089 0.0548,0.234863 0.0548,0.09394 0.14092,0.156575 0.0861,0.06263 0.19571,0.09394 0.10961,0.03132 0.21921,0.03132 h 6.06729 q 0.69676,0 1.18214,0.422753 0.25052,0.227034 0.38361,0.532356 0.14092,0.297493 0.14092,0.649787 0,0.352294 -0.14092,0.649787 -0.13309,0.297493 -0.38361,0.524527 -0.23486,0.203548 -0.54018,0.320979 -0.2975,0.109603 -0.64196,0.109603 z m 10.97593,-1.096027 h 1.09602 v 1.096027 h -1.09602 z m 12.06412,1.096027 h -7.69567 q -0.34447,0 -0.65762,-0.12526 -0.30532,-0.133089 -0.54801,-0.375781 -0.24269,-0.242691 -0.37578,-0.548013 -0.12526,-0.31315 -0.12526,-0.657616 v -1.910217 q 0,-0.344466 0.12526,-0.649787 0.13309,-0.313151 0.37578,-0.555842 0.24269,-0.242692 0.54801,-0.367952 0.31315,-0.133089 0.65762,-0.133089 h 7.69567 v 1.096026 h -7.69567 q -0.25052,0 -0.43059,0.180062 -0.18006,0.180061 -0.18006,0.430582 v 1.910217 q 0,0.25052 0.18006,0.430582 0.18007,0.180061 0.43059,0.180061 h 7.69567 z m 3.11584,0 q -0.34446,0 -0.65761,-0.12526 -0.30533,-0.133089 -0.54802,-0.375781 -0.24269,-0.242691 -0.37578,-0.548013 -0.12526,-0.31315 -0.12526,-0.657616 v -1.910217 q 0,-0.352295 0.12526,-0.657616 0.13309,-0.305322 0.37578,-0.548013 0.24269,-0.250521 0.54802,-0.375781 0.31315,-0.12526 0.65761,-0.12526 h 6.06729 q 0.3523,0 0.65762,0.12526 0.30532,0.12526 0.54801,0.375781 0.25052,0.242691 0.37578,0.548013 0.12526,0.305321 0.12526,0.657616 v 1.910217 q 0,0.344466 -0.12526,0.657616 -0.12526,0.305322 -0.37578,0.548013 -0.24269,0.242692 -0.54801,0.375781 -0.30532,0.12526 -0.65762,0.12526 z m 0,-4.227531 q -0.25052,0 -0.43058,0.180062 -0.18006,0.180061 -0.18006,0.430582 v 1.910217 q 0,0.12526 0.047,0.234863 0.047,0.109603 0.12526,0.195719 0.0861,0.07829 0.19572,0.12526 0.11743,0.04697 0.24269,0.04697 h 6.06729 q 0.12526,0 0.23486,-0.04697 0.11744,-0.04697 0.19572,-0.12526 0.0861,-0.08612 0.13309,-0.195719 0.047,-0.109603 0.047,-0.234863 v -1.910217 q 0,-0.250521 -0.18006,-0.430582 -0.18006,-0.180062 -0.43058,-0.180062 z m 18.3193,-0.594985 q 0.23486,0.242691 0.36012,0.548013 0.13309,0.305321 0.13309,0.641958 v 3.632545 h -1.0882 v -3.616887 q 0,-0.250521 -0.18789,-0.430582 -0.18006,-0.180062 -0.43058,-0.180062 h -2.48172 v 4.227531 h -1.09602 v -4.227531 h -2.48172 q -0.25052,0 -0.43841,0.180062 -0.18006,0.180061 -0.18006,0.430582 v 3.616887 h -1.0882 v -3.616887 q 0,-0.344466 0.12526,-0.649787 0.12526,-0.313151 0.36795,-0.555842 0.25052,-0.242692 0.55585,-0.367952 0.30532,-0.133089 0.65761,-0.133089 h 6.05946 q 0.3523,0 0.65762,0.133089 0.30532,0.12526 0.55584,0.367952 z"
         id="text1-0-3-5"
         style="font-size:7.82876px;font-family:Station;-inkscape-font-specification:Station;fill:#ffffff;stroke-width:0.304463"
         transform="scale(0.88047528,1.1357502)"
         aria-label="JAKESMurals.com " /><path
         style="fill:url(#linearGradient1);stroke:#ffffff;stroke-width:0.5;stroke-dasharray:none;stroke-opacity:1"
         d="m 70.945148,101.95616 c -0.469293,0.003 -0.21578,-0.98487 0.108857,-1.1795 0.505425,-0.30301 0.833742,-0.22823 2.577916,-0.50096 0.920029,-0.14385 2.568698,-0.408383 3.663728,-0.587847 1.09503,-0.179473 2.067431,-0.326311 2.160912,-0.326311 0.332982,0 0.345458,-0.07057 0.345458,-1.952502 V 95.632056 H 79.582641 79.363264 V 95.001948 94.37185 l 0.466551,0.02972 c 1.098858,0.07002 1.215489,0.350611 1.214965,2.923476 -5.52e-4,3.056084 0.01435,3.033204 -2.19341,3.353624 -0.583192,0.0846 -1.948849,0.297 -3.034789,0.47189 -1.08594,0.1749 -2.250842,0.39441 -2.596015,0.40833 -0.798889,0.0322 -0.611485,0.2422 -0.646963,0.38765 -0.05953,0.0887 -1.085637,0.006 -1.628455,0.01 z"
         id="path20-1-8-4-6-6" /><path
         id="rect58-34-4-1-1"
         style="fill:url(#linearGradient2);stroke:#ffffff;stroke-width:0.5;stroke-dasharray:none;stroke-opacity:1"
         d="m 64.863435,91.842229 c -0.660397,0.0037 -1.191999,1.289041 -1.191999,2.889911 v 0.578177 c 0,1.60087 0.531593,2.889911 1.191999,2.889911 h 12.658943 c 0.660415,0 1.192018,-1.289041 1.192018,-2.889911 V 94.73214 c 0,-1.60087 -0.531603,-2.889911 -1.192018,-2.889911 h -4.172254 c -0.141915,0 -6.493142,0.122483 -7.123903,0.709751 -0.823106,0.766336 -1.021874,2.327108 -1.021874,2.327108 0,0 -0.158817,-2.357131 1.083879,-2.795684 0.325925,-0.115021 1.330105,-0.257626 0.754016,-0.251931 z" /><rect
         style="fill:url(#linearGradient3);stroke:#ffffff;stroke-width:0.5;stroke-dasharray:none;stroke-opacity:1"
         id="rect59-8-6-5-4"
         width="3.4626887"
         height="9.4798212"
         x="69.894073"
         y="102.62013"
         rx="1.1920732"
         ry="2.889663" /><path
         d="m 86.932671,131.20043 v -1.24481 h 5.252491 c 0.147051,0 0.273423,-0.0682 0.379115,-0.2045 0.105693,-0.13634 0.158539,-0.29935 0.158539,-0.48904 v -4.10788 h 0.971921 v 4.10788 c 0,0.26082 -0.03906,0.50978 -0.117182,0.74689 -0.07353,0.23118 -0.183814,0.43865 -0.330865,0.62241 -0.142455,0.18375 -0.303295,0.32602 -0.482518,0.42679 -0.179218,0.0948 -0.372221,0.14226 -0.57901,0.14226 z m 7.368652,0 4.184072,-6.04623 h 0.716874 l 4.184061,6.04623 h -1.29588 l -0.76514,-1.10254 h -4.96297 l -0.765125,1.10254 z m 2.915747,-2.34736 h 3.25351 l -1.626753,-2.35625 z m 14.23411,2.34736 -2.55732,-2.29401 -2.5642,2.29401 h -2.04723 v -6.05512 h 0.96502 v 4.81031 h 0.77892 l 5.36278,-4.81031 h 1.68878 l -3.34312,2.99644 3.40516,3.05868 z m 3.55681,-4.80142 v 1.1559 h 6.61731 v 1.24481 h -6.61731 v 1.1559 h 7.31351 v 1.24481 h -8.28542 v -6.04623 h 8.28542 v 1.24481 z m 8.68523,4.80142 v -1.2537 h 6.8172 c 0.13326,0 0.25504,-0.0445 0.36533,-0.13337 0.11488,-0.0948 0.17232,-0.24008 0.17232,-0.43569 0,-0.20154 -0.0574,-0.34973 -0.17232,-0.44457 -0.11029,-0.0949 -0.23207,-0.14227 -0.36533,-0.14227 h -5.3421 c -0.1976,0 -0.38601,-0.0415 -0.56523,-0.12448 -0.17922,-0.083 -0.33546,-0.20154 -0.46872,-0.35566 -0.31249,-0.34973 -0.46873,-0.79727 -0.46873,-1.34262 0,-0.26675 0.0391,-0.51274 0.11718,-0.73799 0.0827,-0.22525 0.1999,-0.42383 0.35155,-0.59574 0.13326,-0.15411 0.2895,-0.27267 0.46872,-0.35566 0.17922,-0.083 0.36763,-0.12448 0.56523,-0.12448 h 6.20373 v 1.24481 h -6.20373 c -0.0643,0 -0.12867,0.0119 -0.193,0.0356 -0.0643,0.0237 -0.12178,0.0593 -0.17233,0.10669 -0.0505,0.0415 -0.0919,0.10074 -0.12407,0.17783 -0.0322,0.0711 -0.0483,0.15412 -0.0483,0.24896 0,0.10077 0.0161,0.18969 0.0483,0.26675 0.0321,0.0711 0.0735,0.1304 0.12407,0.17783 0.0505,0.0474 0.10798,0.083 0.17233,0.10669 0.0643,0.0237 0.12867,0.0356 0.193,0.0356 h 5.3421 c 0.40899,0 0.75594,0.16005 1.04085,0.48014 0.14705,0.17191 0.25963,0.37345 0.33775,0.60463 0.0827,0.22525 0.12408,0.47124 0.12408,0.73799 0,0.26675 -0.0414,0.51275 -0.12408,0.738 -0.0781,0.22525 -0.1907,0.42383 -0.33775,0.59573 -0.13786,0.15412 -0.2964,0.27564 -0.47562,0.36455 -0.17462,0.083 -0.36303,0.12448 -0.56523,0.12448 z m 17.77022,-6.05512 v 6.05512 h -0.96503 v -4.45465 l -2.90885,2.96977 h -0.5997 l -2.90886,-2.96977 v 4.45465 h -0.96502 v -6.05512 h 0.96502 v 0.009 l 3.20526,3.28097 3.21215,-3.28097 v -0.009 z m 2.87439,6.05512 c -0.20219,0 -0.3929,-0.0474 -0.57213,-0.14226 -0.17921,-0.10077 -0.34235,-0.24304 -0.4894,-0.42679 -0.14245,-0.18376 -0.25044,-0.39123 -0.32397,-0.62241 -0.0735,-0.23711 -0.11029,-0.48607 -0.11029,-0.74689 v -4.10788 h 0.96503 v 4.10788 c 0,0.18969 0.0505,0.3527 0.15164,0.48904 0.10569,0.13041 0.23207,0.19561 0.37912,0.19561 h 5.3421 c 0.0735,0 0.14245,-0.0178 0.20678,-0.0534 0.0689,-0.0355 0.12638,-0.0829 0.17233,-0.14226 0.0505,-0.0652 0.0896,-0.1393 0.11718,-0.22229 0.0276,-0.083 0.0414,-0.1719 0.0414,-0.26674 v -4.10788 h 0.96503 v 4.10788 c 0,0.26081 -0.0368,0.50977 -0.11029,0.74688 -0.0735,0.23118 -0.18152,0.43865 -0.32397,0.62241 -0.14245,0.18376 -0.30559,0.32602 -0.4894,0.42679 -0.17923,0.0949 -0.37223,0.14227 -0.57902,0.14227 z m 8.66453,-5.47717 c 0.14246,-0.18376 0.3033,-0.32306 0.48252,-0.4179 0.18381,-0.10077 0.37682,-0.15116 0.57901,-0.15116 h 6.36227 v 1.24481 h -6.36227 c -0.14705,0 -0.27342,0.0682 -0.37911,0.20451 -0.10569,0.13633 -0.15854,0.29934 -0.15854,0.48903 v 4.10788 h -0.96503 v -4.10788 c 0,-0.26081 0.0368,-0.50681 0.11029,-0.73799 0.0735,-0.23711 0.18381,-0.44754 0.33086,-0.6313 z m 14.5305,-0.56906 c 0.2022,0 0.39291,0.0504 0.57213,0.15116 0.18381,0.0948 0.34695,0.23414 0.4894,0.4179 0.14245,0.18376 0.25044,0.39419 0.32397,0.6313 0.0781,0.23118 0.11719,0.47718 0.11719,0.73799 v 2.16953 c 0,0.26082 -0.0391,0.50978 -0.11719,0.74689 -0.0735,0.23118 -0.18152,0.43865 -0.32397,0.62241 -0.14245,0.18375 -0.30559,0.32602 -0.4894,0.42679 -0.17922,0.0948 -0.36993,0.14226 -0.57213,0.14226 h -5.34209 c -0.20679,0 -0.3998,-0.0474 -0.57901,-0.14226 -0.17923,-0.10077 -0.34007,-0.24304 -0.48252,-0.42679 -0.14245,-0.18376 -0.25274,-0.39123 -0.33087,-0.62241 -0.0735,-0.23118 -0.11028,-0.47421 -0.11028,-0.7291 v -0.0178 c 0,-0.26082 0.0368,-0.50385 0.11028,-0.7291 0.0781,-0.23118 0.18842,-0.43865 0.33087,-0.62241 0.14245,-0.18376 0.30329,-0.32306 0.48252,-0.4179 0.17921,-0.10077 0.37222,-0.15116 0.57901,-0.15116 h 5.87286 v -0.24896 c 0,-0.18969 -0.0528,-0.3527 -0.15854,-0.48903 -0.1011,-0.13634 -0.22518,-0.20451 -0.37223,-0.20451 h -5.48684 v -1.24481 z m 0.53077,3.43213 h -5.87286 c -0.14705,0 -0.27343,0.0682 -0.37912,0.2045 -0.10569,0.13041 -0.15854,0.29046 -0.15854,0.48014 0,0.18969 0.0529,0.3527 0.15854,0.48904 0.10569,0.13041 0.23207,0.19561 0.37912,0.19561 h 5.34209 c 0.14705,0 0.27113,-0.0682 0.37223,-0.2045 0.10569,-0.13634 0.15854,-0.29935 0.15854,-0.48904 z m 3.31556,0.67575 c 0,0.18969 0.0528,0.3527 0.15853,0.48904 0.10569,0.13633 0.23207,0.2045 0.37912,0.2045 h 1.41997 v 1.24481 h -1.41997 c -0.20679,0 -0.39979,-0.0474 -0.57901,-0.14226 -0.17923,-0.10077 -0.34007,-0.24304 -0.48252,-0.42679 -0.14705,-0.18376 -0.25733,-0.39123 -0.33086,-0.62241 -0.0735,-0.23711 -0.11029,-0.48607 -0.11029,-0.74689 v -4.10788 h 0.96503 z m 2.91574,1.93835 v -1.2537 h 6.81721 c 0.13326,0 0.25503,-0.0445 0.36532,-0.13337 0.11489,-0.0948 0.17233,-0.24008 0.17233,-0.43569 0,-0.20154 -0.0574,-0.34973 -0.17233,-0.44457 -0.11029,-0.0949 -0.23206,-0.14227 -0.36532,-0.14227 h -5.3421 c -0.19761,0 -0.38602,-0.0415 -0.56523,-0.12448 -0.17922,-0.083 -0.33546,-0.20154 -0.46872,-0.35566 -0.31249,-0.34973 -0.46873,-0.79727 -0.46873,-1.34262 0,-0.26675 0.0391,-0.51274 0.11718,-0.73799 0.0827,-0.22525 0.1999,-0.42383 0.35155,-0.59574 0.13326,-0.15411 0.2895,-0.27267 0.46872,-0.35566 0.17921,-0.083 0.36762,-0.12448 0.56523,-0.12448 h 6.20372 v 1.24481 h -6.20372 c -0.0643,0 -0.12867,0.0119 -0.19301,0.0356 -0.0643,0.0237 -0.12177,0.0593 -0.17232,0.10669 -0.0505,0.0415 -0.0919,0.10074 -0.12408,0.17783 -0.0321,0.0711 -0.0482,0.15412 -0.0482,0.24896 0,0.10077 0.0161,0.18969 0.0482,0.26675 0.0321,0.0711 0.0735,0.1304 0.12408,0.17783 0.0505,0.0474 0.10797,0.083 0.17232,0.10669 0.0643,0.0237 0.12867,0.0356 0.19301,0.0356 h 5.3421 c 0.40899,0 0.75593,0.16005 1.04084,0.48014 0.14705,0.17191 0.25964,0.37345 0.33776,0.60463 0.0827,0.22525 0.12408,0.47124 0.12408,0.73799 0,0.26675 -0.0414,0.51275 -0.12408,0.738 -0.0781,0.22525 -0.19071,0.42383 -0.33776,0.59573 -0.13786,0.15412 -0.2964,0.27564 -0.47561,0.36455 -0.17463,0.083 -0.36304,0.12448 -0.56523,0.12448 z"
         id="text1-0-3-5-7"
         style="font-size:7.82876px;font-family:Station;-inkscape-font-specification:Station;fill:#ffffff;stroke-width:0.304463"
         aria-label="JAKESMurals.com " /><path
         style="fill:url(#linearGradient5);stroke:#ffffff;stroke-width:0.5;stroke-dasharray:none;stroke-opacity:1"
         d="m 70.945147,128.16785 c -0.469293,0.003 -0.21578,-0.98487 0.108857,-1.1795 0.505425,-0.30301 0.833742,-0.22823 2.577916,-0.50096 0.920029,-0.14385 2.568698,-0.40838 3.663728,-0.58785 1.09503,-0.17947 2.067431,-0.32631 2.160912,-0.32631 0.332982,0 0.345458,-0.0706 0.345458,-1.9525 v -1.77698 H 79.58264 79.363263 v -0.63011 -0.6301 l 0.466551,0.0297 c 1.098858,0.07 1.215489,0.35061 1.214965,2.92348 -5.52e-4,3.05608 0.01435,3.0332 -2.19341,3.35362 -0.583192,0.0846 -1.948849,0.297 -3.034789,0.47189 -1.08594,0.1749 -2.250842,0.39441 -2.596015,0.40833 -0.798889,0.0322 -0.611485,0.2422 -0.646963,0.38765 -0.05953,0.0887 -1.085637,0.006 -1.628455,0.01 z"
         id="path20-1-8-4-6-6-1" /><path
         id="rect58-34-4-1-1-1"
         style="fill:url(#linearGradient6);stroke:#ffffff;stroke-width:0.5;stroke-dasharray:none;stroke-opacity:1"
         d="m 64.863434,118.05392 c -0.660397,0.004 -1.191999,1.28904 -1.191999,2.88991 v 0.57818 c 0,1.60087 0.531593,2.88991 1.191999,2.88991 h 12.658943 c 0.660415,0 1.192018,-1.28904 1.192018,-2.88991 v -0.57818 c 0,-1.60087 -0.531603,-2.88991 -1.192018,-2.88991 h -4.172254 c -0.141915,0 -6.493142,0.12248 -7.123903,0.70975 -0.823106,0.76634 -1.021874,2.32711 -1.021874,2.32711 0,0 -0.158817,-2.35713 1.083879,-2.79568 0.325925,-0.11503 1.330105,-0.25763 0.754016,-0.25194 z" /><rect
         style="fill:url(#linearGradient8);stroke:#ffffff;stroke-width:0.5;stroke-dasharray:none;stroke-opacity:1"
         id="rect59-8-6-5-4-5"
         width="3.4626887"
         height="9.4798212"
         x="69.894073"
         y="128.83182"
         rx="1.1920732"
         ry="2.889663" /><text
         xml:space="preserve"
         style="font-style:normal;font-variant:normal;font-weight:normal;font-stretch:normal;font-size:2.32038px;font-family:Station;-inkscape-font-specification:Station;text-align:start;writing-mode:lr-tb;direction:ltr;text-anchor:start;fill:#ffffff;fill-opacity:1;stroke:none;stroke-width:0.0621533"
         x="130.33589"
         y="196.45847"
         id="text48-0"
         transform="scale(0.90441484,1.1056873)"><tspan
           id="tspan48-6"
           style="stroke-width:0.0621533"
           x="130.33589"
           y="196.45847">JAKESMURALS.COM</tspan></text><text
         xml:space="preserve"
         style="font-style:normal;font-variant:normal;font-weight:normal;font-stretch:normal;font-size:2.32038px;font-family:Station;-inkscape-font-specification:Station;text-align:start;writing-mode:lr-tb;direction:ltr;text-anchor:start;fill:#ffffff;fill-opacity:1;stroke:none;stroke-width:0.0621533"
         x="181.89378"
         y="196.45978"
         id="text48-8-6"
         transform="scale(0.90441484,1.1056873)"><tspan
           id="tspan48-2-1"
           style="stroke-width:0.0621533"
           x="181.89378"
           y="196.45978">(610) 737-2969</tspan></text><text
         xml:space="preserve"
         transform="matrix(0.26458333,0,0,0.26458333,16.524385,142.78866)"
         id="text58"
         style="font-style:normal;font-variant:normal;font-weight:normal;font-stretch:normal;font-size:37.3333px;font-family:Station;-inkscape-font-specification:Station;text-align:center;writing-mode:lr-tb;direction:ltr;white-space:pre;shape-inside:url(#rect60);display:inline;fill:#ffffff;fill-opacity:1;stroke:none;stroke-opacity:1" /></g></g></svg>
